<svg id="Layer_1" data-name="Layer 1" xmlns="http://www.w3.org/2000/svg" viewBox="0 0 199.03 46"><defs><style>.cls-1,.cls-2{fill:#f2a104;}.cls-2{font-size:22.46px;font-family:BentleySemiBold, Bentley;font-weight:700;}.cls-3{letter-spacing:-0.02em;}</style></defs><title>CN_Logo</title><path d="M51.73,42.58C39.5,34.43,27.39,34.28,15,42.5a.19.19,0,0,1-.3-.16c0-1.71,0-3.24,0-4.77,0-.9.91-1.22,1.57-1.63,5.56-3.45,11.85-4.42,18.41-4.22,5.36.16,10.52,1,15.17,3.61.86.43,2.18,1,2.3,2.53.07,1-.07,3.14-.11,4.56A.19.19,0,0,1,51.73,42.58Z" transform="translate(-0.49 -14.5)"/><path d="M.49,30c3-1.46,5.88-2.86,8.75-4.24q11.28-5.44,22.55-10.89a2.42,2.42,0,0,1,2.38-.17q15.36,7.4,30.77,14.71c.26.12.59.19.71.75-4.19,1.85-8.42,3.71-12.65,5.59-.56.24-.91-.06-1.29-.37-8.38-6.83-28-7-36.66,0a1.85,1.85,0,0,1-2.16.22c-1.33-.58-2.66-1.09-4-1.71-.34-.15-1-.6-1.54-.22S7,35,7.29,35.38c1.35,1.85,1,3.95,1.08,6,.12,2.3-.69,2.88-3,2.32-.54-.13-.71-.41-.67-.86.07-2.16-.2-5.46.76-6.91,1.25-1.88.36-3.09-1.62-4.14C2.77,31.21,1.93,30.89.49,30Z" transform="translate(-0.49 -14.5)"/><path class="cls-1" d="M51,55.14a4.82,4.82,0,0,1-.34,1.78c-2.19,5.31-6.1.74-6.1.74l-8.4-11c-1.32-1.36-1.45.72-1.45.72v8.17c-.32,2.57-1.68,3.46-2.51,3.77a2.58,2.58,0,0,1-.91.17H18.08a2.37,2.37,0,0,1-.65-.09c-2.39-.72-2.51-3.59-2.51-3.59v-8c.21-2.89,1.6-4.08,2.55-4.56a2.88,2.88,0,0,1,1.32-.31l10.5,0,0,3.26-10.35.15c-1.22,0-1.32,1.48-1.32,1.48v6.76c.11,1.74,1.08,1.61,1.08,1.61l11.94,0c1.58.13,1.44-1.6,1.44-1.6l.15-7.89a3.18,3.18,0,0,1,.06-.62l.06-.28a2.65,2.65,0,0,1,.3-.8c1.79-3,4.1-1.85,5-1.21a2.74,2.74,0,0,1,.65.62l8.19,10.83c2.28,2.11,2.24-1.65,2.24-1.65V51.49h2.38Z" transform="translate(-0.49 -14.5)"/><path class="cls-1" d="M49.5,50.81a2.59,2.59,0,0,1-1.09-.54.41.41,0,0,1-.15-.26c-.19-.87-.38-1.74-.58-2.61a.41.41,0,0,1,.09-.4,12.71,12.71,0,0,0,2.08-4.06c.07-.22.11-.2.17,0a13.88,13.88,0,0,0,2,4.19.55.55,0,0,1,.08.51c-.19.82-.39,1.64-.57,2.46a.42.42,0,0,1-.16.28,2.47,2.47,0,0,1-1.15.46c-.15,0-.18,0-.15-.31.11-1,.19-2,.3-2.94a.6.6,0,0,0-.05-.31c-.14-.27-.27-.72-.44-.73s-.29.47-.45.71a.48.48,0,0,0,0,.32c.09.93.17,1.87.26,2.8C49.75,50.84,49.75,50.84,49.5,50.81Z" transform="translate(-0.49 -14.5)"/><path d="M178.59,38.12a1,1,0,0,1,.54.15,1,1,0,0,1,.42,1c0,.28,0,.56,0,.84a.9.9,0,0,1-.93.93.48.48,0,0,0-.51.29,6.15,6.15,0,0,1-.35.55c-.17-.25-.32-.46-.46-.69a.29.29,0,0,0-.28-.15c-.77,0-1.09-.38-1.07-1.19a5.23,5.23,0,0,0,0-.56,1.18,1.18,0,0,1,.23-.86,1,1,0,0,1,.75-.33Zm-.85,2.17h.75c.18,0,.26-.09.26-.27s0-.59,0-.89a.22.22,0,0,0-.25-.25H177a.22.22,0,0,0-.25.25c0,.3,0,.6,0,.9s.09.26.27.26Z" transform="translate(-0.49 -14.5)"/><text class="cls-2" transform="translate(62.33 38.1)">Colle<tspan class="cls-3" x="49.45" y="0">g</tspan><tspan x="60.56" y="0">e</tspan></text><path d="M138.84,52.82V38.27h2.24L149,48.47V38.27h2.47V52.82h-2.22l-7.88-10.17V52.82Z" transform="translate(-0.49 -14.5)"/><path d="M154.4,47.88c0-3.14,2.36-5.12,5.39-5.12a5.05,5.05,0,0,1,5.39,5.12c0,3.15-2.38,5.12-5.39,5.12S154.4,51,154.4,47.88Zm8.22,0a2.84,2.84,0,1,0-2.83,2.92A2.7,2.7,0,0,0,162.62,47.88Z" transform="translate(-0.49 -14.5)"/><path d="M169.87,45v3.89a1.76,1.76,0,0,0,2,1.93,4.27,4.27,0,0,0,2.38-.76v2.18a4.65,4.65,0,0,1-2.7.78c-2.45,0-4.13-1.44-4.13-4V43l2.25-1.86h.22v1.84h4.22v2Z" transform="translate(-0.49 -14.5)"/><path d="M176.52,52.82V42.94H179v9.88Z" transform="translate(-0.49 -14.5)"/><path d="M184.42,45v7.84H182V42.18a3.82,3.82,0,0,1,4-4.09,4.42,4.42,0,0,1,2.54.65V41a3.55,3.55,0,0,0-2.18-.7,1.73,1.73,0,0,0-1.93,1.91v.72h3.39v2Z" transform="translate(-0.49 -14.5)"/><path d="M190.19,57l2.7-5.36-4.43-8.74h2.74L194.12,49l2.81-6.06h2.58L192.66,57Z" transform="translate(-0.49 -14.5)"/></svg>